<svg xmlns="http://www.w3.org/2000/svg" viewBox="0 0 100 100" fill="none">
  <style>
    .brand-glyph {
      fill: #111111;
    }
    @media (prefers-color-scheme: dark) {
      .brand-glyph {
        fill: #FDFBF7;
      }
    }
  </style>
  <!-- Beautiful, balanced, custom editorial B monogram that adapts to dark/light mode -->
  <path class="brand-glyph" fill-rule="evenodd" clip-rule="evenodd" d="M20 10H50C63.25 10 74 19 74 30C74 41 63.25 50 50 50C66.5 50 80 59 80 70C80 81 66.5 90 50 90H20V10ZM36 22H46C52.6 22 58 25.6 58 30C58 34.4 52.6 38 46 38H36V22ZM36 62H48C55.7 62 62 65.6 62 70C62 74.4 55.7 78 48 78H36V62Z" />
</svg>